<svg width="24" height="24" viewBox="0 0 24 24" fill="none" xmlns="http://www.w3.org/2000/svg">
<path d="M9.17206 16.242L12.0001 13.414L14.8281 16.242L16.2421 14.828L13.4141 12L16.2421 9.172L14.8281 7.758L12.0001 10.586L9.17206 7.758L7.75806 9.172L10.5861 12L7.75806 14.828L9.17206 16.242Z" fill="currentColor"/>
<path d="M12 22C17.514 22 22 17.514 22 12C22 6.486 17.514 2 12 2C6.486 2 2 6.486 2 12C2 17.514 6.486 22 12 22ZM12 4C16.411 4 20 7.589 20 12C20 16.411 16.411 20 12 20C7.589 20 4 16.411 4 12C4 7.589 7.589 4 12 4Z" fill="currentColor"/>
</svg>
